{
  "accessors": [
    {
      "bufferView": 2,
      "componentType": 5126,
      "count": 457,
      "max": [
        7.0239667892456055,
        -4.409423828125,
        7.023924827575684
      ],
      "min": [
        -7.02396821975708,
        -6.000137805938721,
        -7.023972034454346
      ],
      "type": "VEC3"
    },
    {
      "bufferView": 2,
      "byteOffset": 5484,
      "componentType": 5126,
      "count": 457,
      "max": [
        1.0,
        1.0,
        1.0
      ],
      "min": [
        -1.0,
        -0.9575129747390747,
        -1.0
      ],
      "type": "VEC3"
    },
    {
      "bufferView": 3,
      "componentType": 5126,
      "count": 457,
      "max": [
        1.0,
        0.07870198786258698,
        1.0,
        1.0
      ],
      "min": [
        -1.0,
        -0.07869935035705566,
        -1.0,
        1.0
      ],
      "type": "VEC4"
    },
    {
      "bufferView": 1,
      "componentType": 5126,
      "count": 457,
      "max": [
        1.0,
        0.10324600338935852
      ],
      "min": [
        0.0,
        0.0
      ],
      "type": "VEC2"
    },
    {
      "bufferView": 0,
      "componentType": 5125,
      "count": 2160,
      "type": "SCALAR"
    },
    {
      "bufferView": 2,
      "byteOffset": 10968,
      "componentType": 5126,
      "count": 251,
      "max": [
        7.452003002166748,
        11.761619567871094,
        7.696907043457031
      ],
      "min": [
        -7.7020368576049805,
        -6.927046775817871,
        -7.725677013397217
      ],
      "type": "VEC3"
    },
    {
      "bufferView": 2,
      "byteOffset": 13980,
      "componentType": 5126,
      "count": 251,
      "max": [
        0.9935165047645569,
        0.9896634817123413,
        0.9940295815467834
      ],
      "min": [
        -0.9972946643829346,
        -1.0,
        -0.997285783290863
      ],
      "type": "VEC3"
    },
    {
      "bufferView": 3,
      "byteOffset": 7312,
      "componentType": 5126,
      "count": 251,
      "max": [
        0.9985204339027405,
        0.6282206177711487,
        0.9999213218688965,
        1.0
      ],
      "min": [
        -0.9910275936126709,
        -0.6156750321388245,
        -1.0,
        1.0
      ],
      "type": "VEC4"
    },
    {
      "bufferView": 1,
      "byteOffset": 3656,
      "componentType": 5126,
      "count": 251,
      "max": [
        0.9980469942092896,
        0.7492070198059082
      ],
      "min": [
        0.0019529999699443579,
        0.12024100124835968
      ],
      "type": "VEC2"
    },
    {
      "bufferView": 0,
      "byteOffset": 8640,
      "componentType": 5125,
      "count": 1260,
      "type": "SCALAR"
    }
  ],
  "asset": {
    "extras": {
      "author": "Timothy Ahene (https://sketchfab.com/timothyahene)",
      "license": "CC-BY-4.0 (http://creativecommons.org/licenses/by/4.0/)",
      "source": "https://sketchfab.com/3d-models/salt-lamp-800889f66f884f96b349a4542db00b2c",
      "title": "Salt lamp"
    },
    "generator": "Sketchfab-13.65.0",
    "version": "2.0"
  },
  "bufferViews": [
    {
      "buffer": 0,
      "byteLength": 13680,
      "name": "floatBufferViews",
      "target": 34963
    },
    {
      "buffer": 0,
      "byteLength": 5664,
      "byteOffset": 13680,
      "byteStride": 8,
      "name": "floatBufferViews",
      "target": 34962
    },
    {
      "buffer": 0,
      "byteLength": 16992,
      "byteOffset": 19344,
      "byteStride": 12,
      "name": "floatBufferViews",
      "target": 34962
    },
    {
      "buffer": 0,
      "byteLength": 11328,
      "byteOffset": 36336,
      "byteStride": 16,
      "name": "floatBufferViews",
      "target": 34962
    }
  ],
  "buffers": [
    {
      "byteLength": 47664,
      "uri": "scene.bin"
    }
  ],
  "images": [
    {
      "uri": "textures/saltLamp_mtl_baseColor.jpeg"
    },
    {
      "uri": "textures/saltLamp_mtl_metallicRoughness.png"
    },
    {
      "uri": "textures/saltLamp_mtl_emissive.jpeg"
    },
    {
      "uri": "textures/saltLamp_mtl_normal.png"
    }
  ],
  "materials": [
    {
      "emissiveFactor": [
        1.0,
        1.0,
        1.0
      ],
      "emissiveTexture": {
        "index": 2
      },
      "name": "saltLamp_mtl",
      "normalTexture": {
        "index": 3
      },
      "occlusionTexture": {
        "index": 1
      },
      "pbrMetallicRoughness": {
        "baseColorTexture": {
          "index": 0
        },
        "metallicRoughnessTexture": {
          "index": 1
        }
      }
    }
  ],
  "meshes": [
    {
      "name": "defaultMaterial",
      "primitives": [
        {
          "attributes": {
            "NORMAL": 1,
            "POSITION": 0,
            "TANGENT": 2,
            "TEXCOORD_0": 3
          },
          "indices": 4,
          "material": 0,
          "mode": 4
        }
      ]
    },
    {
      "name": "defaultMaterial",
      "primitives": [
        {
          "attributes": {
            "NORMAL": 6,
            "POSITION": 5,
            "TANGENT": 7,
            "TEXCOORD_0": 8
          },
          "indices": 9,
          "material": 0,
          "mode": 4
        }
      ]
    }
  ],
  "nodes": [
    {
      "children": [
        1
      ],
      "matrix": [
        1.0,
        0.0,
        0.0,
        0.0,
        0.0,
        2.220446049250313e-16,
        -1.0,
        0.0,
        0.0,
        1.0,
        2.220446049250313e-16,
        0.0,
        0.0,
        0.0,
        0.0,
        1.0
      ],
      "name": "Sketchfab_model"
    },
    {
      "children": [
        2
      ],
      "matrix": [
        1.0,
        0.0,
        0.0,
        0.0,
        0.0,
        -4.371139006309477e-08,
        0.999999999999999,
        0.0,
        0.0,
        -0.999999999999999,
        -4.371139006309477e-08,
        0.0,
        0.0,
        0.0,
        0.0,
        1.0
      ],
      "name": "Collada visual scene group"
    },
    {
      "children": [
        3,
        4
      ],
      "matrix": [
        -0.007595,
        0.0,
        0.006914,
        0.0,
        0.0,
        0.009026,
        0.0,
        0.0,
        -0.006914,
        0.0,
        -0.007595,
        0.0,
        -0.532386,
        1.293687,
        1.388645,
        1.0
      ],
      "name": "lamp_base_low"
    },
    {
      "mesh": 0,
      "name": "defaultMaterial"
    },
    {
      "children": [
        5
      ],
      "matrix": [
        -0.722035,
        0.0,
        -0.678521,
        0.0,
        0.0,
        1.127466,
        0.0,
        0.0,
        0.678521,
        0.0,
        -0.722035,
        0.0,
        -2e-06,
        3.400586,
        2e-06,
        1.0
      ],
      "name": "salt_rock_low"
    },
    {
      "mesh": 1,
      "name": "defaultMaterial"
    }
  ],
  "samplers": [
    {
      "magFilter": 9729,
      "minFilter": 9987,
      "wrapS": 10497,
      "wrapT": 10497
    }
  ],
  "scene": 0,
  "scenes": [
    {
      "name": "Sketchfab_Scene",
      "nodes": [
        0
      ]
    }
  ],
  "textures": [
    {
      "sampler": 0,
      "source": 0
    },
    {
      "sampler": 0,
      "source": 1
    },
    {
      "sampler": 0,
      "source": 2
    },
    {
      "sampler": 0,
      "source": 3
    }
  ]
}
